<svg width="152" height="28" viewBox="0 0 152 28" fill="none" xmlns="http://www.w3.org/2000/svg">
<g filter="url(#filter0_d_301_3)">
<path d="M7.032 4.048V9.64H13.128V11.44H7.032V17.2H13.848V19H4.848V2.248H13.848V4.048H7.032ZM19.3367 1.24V19H17.1527V1.24H19.3367ZM24.1869 3.712C23.7709 3.712 23.4189 3.568 23.1309 3.28C22.8429 2.992 22.6989 2.64 22.6989 2.224C22.6989 1.808 22.8429 1.456 23.1309 1.168C23.4189 0.879999 23.7709 0.735999 24.1869 0.735999C24.5869 0.735999 24.9229 0.879999 25.1949 1.168C25.4829 1.456 25.6269 1.808 25.6269 2.224C25.6269 2.64 25.4829 2.992 25.1949 3.28C24.9229 3.568 24.5869 3.712 24.1869 3.712ZM25.2429 5.848V19H23.0589V5.848H25.2429ZM28.1492 12.376C28.1492 11.032 28.4212 9.856 28.9652 8.848C29.5092 7.824 30.2532 7.032 31.1972 6.472C32.1572 5.912 33.2212 5.632 34.3892 5.632C35.5412 5.632 36.5412 5.88 37.3892 6.376C38.2372 6.872 38.8692 7.496 39.2852 8.248V5.848H41.4932V19H39.2852V16.552C38.8532 17.32 38.2052 17.96 37.3412 18.472C36.4932 18.968 35.5012 19.216 34.3652 19.216C33.1972 19.216 32.1412 18.928 31.1972 18.352C30.2532 17.776 29.5092 16.968 28.9652 15.928C28.4212 14.888 28.1492 13.704 28.1492 12.376ZM39.2852 12.4C39.2852 11.408 39.0852 10.544 38.6852 9.808C38.2852 9.072 37.7412 8.512 37.0532 8.128C36.3812 7.728 35.6372 7.528 34.8212 7.528C34.0052 7.528 33.2612 7.72 32.5892 8.104C31.9172 8.488 31.3812 9.048 30.9812 9.784C30.5812 10.52 30.3812 11.384 30.3812 12.376C30.3812 13.384 30.5812 14.264 30.9812 15.016C31.3812 15.752 31.9172 16.32 32.5892 16.72C33.2612 17.104 34.0052 17.296 34.8212 17.296C35.6372 17.296 36.3812 17.104 37.0532 16.72C37.7412 16.32 38.2852 15.752 38.6852 15.016C39.0852 14.264 39.2852 13.392 39.2852 12.4ZM49.8399 19.216C48.8319 19.216 47.9279 19.048 47.1279 18.712C46.3279 18.36 45.6959 17.88 45.2319 17.272C44.7679 16.648 44.5119 15.936 44.4639 15.136H46.7199C46.7839 15.792 47.0879 16.328 47.6319 16.744C48.1919 17.16 48.9199 17.368 49.8159 17.368C50.6479 17.368 51.3039 17.184 51.7839 16.816C52.2639 16.448 52.5039 15.984 52.5039 15.424C52.5039 14.848 52.2479 14.424 51.7359 14.152C51.2239 13.864 50.4319 13.584 49.3599 13.312C48.3839 13.056 47.5839 12.8 46.9599 12.544C46.3519 12.272 45.8239 11.88 45.3759 11.368C44.9439 10.84 44.7279 10.152 44.7279 9.304C44.7279 8.632 44.9279 8.016 45.3279 7.456C45.7279 6.896 46.2959 6.456 47.0319 6.136C47.7679 5.8 48.6079 5.632 49.5519 5.632C51.0079 5.632 52.1839 6 53.0799 6.736C53.9759 7.472 54.4559 8.48 54.5199 9.76H52.3359C52.2879 9.072 52.0079 8.52 51.4959 8.104C50.9999 7.688 50.3279 7.48 49.4799 7.48C48.6959 7.48 48.0719 7.648 47.6079 7.984C47.1439 8.32 46.9119 8.76 46.9119 9.304C46.9119 9.736 47.0479 10.096 47.3199 10.384C47.6079 10.656 47.9599 10.88 48.3759 11.056C48.8079 11.216 49.3999 11.4 50.1519 11.608C51.0959 11.864 51.8639 12.12 52.4559 12.376C53.0479 12.616 53.5519 12.984 53.9679 13.48C54.3999 13.976 54.6239 14.624 54.6399 15.424C54.6399 16.144 54.4399 16.792 54.0399 17.368C53.6399 17.944 53.0719 18.4 52.3359 18.736C51.6159 19.056 50.7839 19.216 49.8399 19.216ZM76.7934 7.12C76.3294 6.144 75.6574 5.392 74.7774 4.864C73.8974 4.32 72.8734 4.048 71.7054 4.048C70.5374 4.048 69.4814 4.32 68.5374 4.864C67.6094 5.392 66.8734 6.16 66.3294 7.168C65.8014 8.16 65.5374 9.312 65.5374 10.624C65.5374 11.936 65.8014 13.088 66.3294 14.08C66.8734 15.072 67.6094 15.84 68.5374 16.384C69.4814 16.912 70.5374 17.176 71.7054 17.176C73.3374 17.176 74.6814 16.688 75.7374 15.712C76.7934 14.736 77.4094 13.416 77.5854 11.752H70.9134V9.976H79.9134V11.656C79.7854 13.032 79.3534 14.296 78.6174 15.448C77.8814 16.584 76.9134 17.488 75.7134 18.16C74.5134 18.816 73.1774 19.144 71.7054 19.144C70.1534 19.144 68.7374 18.784 67.4574 18.064C66.1774 17.328 65.1614 16.312 64.4094 15.016C63.6734 13.72 63.3054 12.256 63.3054 10.624C63.3054 8.992 63.6734 7.528 64.4094 6.232C65.1614 4.92 66.1774 3.904 67.4574 3.184C68.7374 2.448 70.1534 2.08 71.7054 2.08C73.4814 2.08 75.0494 2.52 76.4094 3.4C77.7854 4.28 78.7854 5.52 79.4094 7.12H76.7934ZM88.5371 19.216C87.3051 19.216 86.1851 18.936 85.1771 18.376C84.1851 17.816 83.4011 17.024 82.8251 16C82.2651 14.96 81.9851 13.76 81.9851 12.4C81.9851 11.056 82.2731 9.872 82.8491 8.848C83.4411 7.808 84.2411 7.016 85.2491 6.472C86.2571 5.912 87.3851 5.632 88.6331 5.632C89.8811 5.632 91.0091 5.912 92.0171 6.472C93.0251 7.016 93.8171 7.8 94.3931 8.824C94.9851 9.848 95.2811 11.04 95.2811 12.4C95.2811 13.76 94.9771 14.96 94.3691 16C93.7771 17.024 92.9691 17.816 91.9451 18.376C90.9211 18.936 89.7851 19.216 88.5371 19.216ZM88.5371 17.296C89.3211 17.296 90.0571 17.112 90.7451 16.744C91.4331 16.376 91.9851 15.824 92.4011 15.088C92.8331 14.352 93.0491 13.456 93.0491 12.4C93.0491 11.344 92.8411 10.448 92.4251 9.712C92.0091 8.976 91.4651 8.432 90.7931 8.08C90.1211 7.712 89.3931 7.528 88.6091 7.528C87.8091 7.528 87.0731 7.712 86.4011 8.08C85.7451 8.432 85.2171 8.976 84.8171 9.712C84.4171 10.448 84.2171 11.344 84.2171 12.4C84.2171 13.472 84.4091 14.376 84.7931 15.112C85.1931 15.848 85.7211 16.4 86.3771 16.768C87.0331 17.12 87.7531 17.296 88.5371 17.296ZM113.969 5.608C114.993 5.608 115.905 5.824 116.705 6.256C117.505 6.672 118.137 7.304 118.601 8.152C119.065 9 119.297 10.032 119.297 11.248V19H117.137V11.56C117.137 10.248 116.809 9.248 116.153 8.56C115.513 7.856 114.641 7.504 113.537 7.504C112.401 7.504 111.497 7.872 110.825 8.608C110.153 9.328 109.817 10.376 109.817 11.752V19H107.657V11.56C107.657 10.248 107.329 9.248 106.673 8.56C106.033 7.856 105.161 7.504 104.057 7.504C102.921 7.504 102.017 7.872 101.345 8.608C100.673 9.328 100.337 10.376 100.337 11.752V19H98.1527V5.848H100.337V7.744C100.769 7.056 101.345 6.528 102.065 6.16C102.801 5.792 103.609 5.608 104.489 5.608C105.593 5.608 106.569 5.856 107.417 6.352C108.265 6.848 108.897 7.576 109.313 8.536C109.681 7.608 110.289 6.888 111.137 6.376C111.985 5.864 112.929 5.608 113.969 5.608ZM134.879 11.92C134.879 12.336 134.855 12.776 134.807 13.24H124.295C124.375 14.536 124.815 15.552 125.615 16.288C126.431 17.008 127.415 17.368 128.567 17.368C129.511 17.368 130.295 17.152 130.919 16.72C131.559 16.272 132.007 15.68 132.263 14.944H134.615C134.263 16.208 133.559 17.24 132.503 18.04C131.447 18.824 130.135 19.216 128.567 19.216C127.319 19.216 126.199 18.936 125.207 18.376C124.231 17.816 123.463 17.024 122.903 16C122.343 14.96 122.063 13.76 122.063 12.4C122.063 11.04 122.335 9.848 122.879 8.824C123.423 7.8 124.183 7.016 125.159 6.472C126.151 5.912 127.287 5.632 128.567 5.632C129.815 5.632 130.919 5.904 131.879 6.448C132.839 6.992 133.575 7.744 134.087 8.704C134.615 9.648 134.879 10.72 134.879 11.92ZM132.623 11.464C132.623 10.632 132.439 9.92 132.071 9.328C131.703 8.72 131.199 8.264 130.559 7.96C129.935 7.64 129.239 7.48 128.471 7.48C127.367 7.48 126.423 7.832 125.639 8.536C124.871 9.24 124.431 10.216 124.319 11.464H132.623ZM142.418 19.216C141.41 19.216 140.506 19.048 139.706 18.712C138.906 18.36 138.274 17.88 137.81 17.272C137.346 16.648 137.09 15.936 137.042 15.136H139.298C139.362 15.792 139.666 16.328 140.21 16.744C140.77 17.16 141.498 17.368 142.394 17.368C143.226 17.368 143.882 17.184 144.362 16.816C144.842 16.448 145.082 15.984 145.082 15.424C145.082 14.848 144.826 14.424 144.314 14.152C143.802 13.864 143.01 13.584 141.938 13.312C140.962 13.056 140.162 12.8 139.538 12.544C138.93 12.272 138.402 11.88 137.954 11.368C137.522 10.84 137.306 10.152 137.306 9.304C137.306 8.632 137.506 8.016 137.906 7.456C138.306 6.896 138.874 6.456 139.61 6.136C140.346 5.8 141.186 5.632 142.13 5.632C143.586 5.632 144.762 6 145.658 6.736C146.554 7.472 147.034 8.48 147.098 9.76H144.914C144.866 9.072 144.586 8.52 144.074 8.104C143.578 7.688 142.906 7.48 142.058 7.48C141.274 7.48 140.65 7.648 140.186 7.984C139.722 8.32 139.49 8.76 139.49 9.304C139.49 9.736 139.626 10.096 139.898 10.384C140.186 10.656 140.538 10.88 140.954 11.056C141.386 11.216 141.978 11.4 142.73 11.608C143.674 11.864 144.442 12.12 145.034 12.376C145.626 12.616 146.13 12.984 146.546 13.48C146.978 13.976 147.202 14.624 147.218 15.424C147.218 16.144 147.018 16.792 146.618 17.368C146.218 17.944 145.65 18.4 144.914 18.736C144.194 19.056 143.362 19.216 142.418 19.216Z" fill="#1D2AC1"/>
</g>
<defs>
<filter id="filter0_d_301_3" x="0.848022" y="0.736023" width="150.37" height="26.48" filterUnits="userSpaceOnUse" color-interpolation-filters="sRGB">
<feFlood flood-opacity="0" result="BackgroundImageFix"/>
<feColorMatrix in="SourceAlpha" type="matrix" values="0 0 0 0 0 0 0 0 0 0 0 0 0 0 0 0 0 0 127 0" result="hardAlpha"/>
<feOffset dy="4"/>
<feGaussianBlur stdDeviation="2"/>
<feComposite in2="hardAlpha" operator="out"/>
<feColorMatrix type="matrix" values="0 0 0 0 0 0 0 0 0 0 0 0 0 0 0 0 0 0 0.25 0"/>
<feBlend mode="normal" in2="BackgroundImageFix" result="effect1_dropShadow_301_3"/>
<feBlend mode="normal" in="SourceGraphic" in2="effect1_dropShadow_301_3" result="shape"/>
</filter>
</defs>
</svg>
